<svg xmlns="http://www.w3.org/2000/svg" width="129.812" height="31.256" viewBox="0 0 129.812 31.256">
  <g id="Group_91795" data-name="Group 91795" transform="translate(-298.879 -111.42)">
    <path id="Path_295940" data-name="Path 295940" d="M14.88-19.546l-.519,2.855H6.834L6-11.942h5.762l-.493,2.8H5.485L4.135-1.431H.476L3.694-19.546ZM22.2-16.717l-.83,4.7h6.1l-.493,2.8h-6.1l-.856,4.905H26.9l-.519,2.881H15.84l3.218-18.141H29.569l-.493,2.855Zm18.608-2.829a10.044,10.044,0,0,1,4.347.869,6.379,6.379,0,0,1,2.8,2.479,7.231,7.231,0,0,1,.973,3.815,10.04,10.04,0,0,1-.182,1.921A10.76,10.76,0,0,1,46.737-5.7a10.394,10.394,0,0,1-3.906,3.153,12.117,12.117,0,0,1-5.242,1.116H31.256l3.218-18.115ZM38-4.39A6.833,6.833,0,0,0,42.688-6a7.513,7.513,0,0,0,2.349-4.464,10.074,10.074,0,0,0,.13-1.479,4.378,4.378,0,0,0-1.285-3.374,5.319,5.319,0,0,0-3.75-1.194H37.589L35.461-4.39ZM67.227-14.875a4.774,4.774,0,0,1-1.285,2.634,5.927,5.927,0,0,1-2.5,1.518,3.323,3.323,0,0,1,2.011,1.246,3.7,3.7,0,0,1,.766,2.336,4.663,4.663,0,0,1-.078.8A5.323,5.323,0,0,1,63.918-2.78a7.669,7.669,0,0,1-4.633,1.35H51.474l3.218-18.115h7.474a6.082,6.082,0,0,1,3.8,1.038A3.337,3.337,0,0,1,67.3-15.731,4.926,4.926,0,0,1,67.227-14.875Zm-3.789.545a3.086,3.086,0,0,0,.026-.467,1.715,1.715,0,0,0-.6-1.4,2.671,2.671,0,0,0-1.739-.493h-3.3L57-12.02h3.322a3.458,3.458,0,0,0,2.1-.61A2.536,2.536,0,0,0,63.438-14.33ZM62.53-6.777a4.213,4.213,0,0,0,.052-.519,1.778,1.778,0,0,0-.662-1.466,2.845,2.845,0,0,0-1.83-.532H56.508l-.856,4.983h3.659a3.509,3.509,0,0,0,2.18-.649A2.7,2.7,0,0,0,62.53-6.777ZM81.5-4.883H74.26L72.47-1.431H68.654l9.732-18.141h4.23l3.3,18.141H82.072Zm-.467-2.829-1.3-7.682-4,7.682Zm24.448,6.281h-3.659l-6-12.431L93.621-1.431H89.962L93.18-19.572h3.633l6.021,12.457,2.206-12.457h3.633Zm13.937-9.135,6.073,9.135h-4.62L115.733-9.5l-1.427,8.071h-3.659l3.218-18.115H117.5l-1.427,8.123,8.019-8.123h4.386Z" transform="translate(299 131.492)" fill="#0076c7" stroke="rgba(0,0,0,0)" stroke-width="1"/>
    <path id="Path_295941" data-name="Path 295941" d="M4.541-6.957v.862H1.807v1.9H3.939v.862H1.807V-.515H.75V-6.957Zm2.039,0V-.515H5.523V-6.957ZM13.263-.515H12.206L9.027-5.325V-.515H7.97V-6.966H9.027l3.179,4.8v-4.8h1.057Zm5.274-1.316h-2.7L15.376-.515h-1.1l2.308-6.451H17.8L20.113-.515H19Zm-.3-.862L17.193-5.687,16.136-2.693ZM26.406-.515H25.35L22.17-5.325V-.515H21.114V-6.966H22.17l3.179,4.8v-4.8h1.057ZM27.444-3.75a3.29,3.29,0,0,1,.44-1.7,3.135,3.135,0,0,1,1.2-1.173,3.337,3.337,0,0,1,1.654-.422,3.361,3.361,0,0,1,1.831.505A2.876,2.876,0,0,1,33.729-5.1h-1.27a1.7,1.7,0,0,0-.7-.76,2.063,2.063,0,0,0-1.029-.25,2.248,2.248,0,0,0-1.14.287A2,2,0,0,0,28.812-5a2.651,2.651,0,0,0-.283,1.251A2.651,2.651,0,0,0,28.812-2.5a2.031,2.031,0,0,0,.783.83,2.22,2.22,0,0,0,1.14.292,2.063,2.063,0,0,0,1.029-.25,1.7,1.7,0,0,0,.7-.76h1.27A2.852,2.852,0,0,1,32.566-.96a3.384,3.384,0,0,1-1.831.5,3.329,3.329,0,0,1-1.659-.422,3.144,3.144,0,0,1-1.191-1.173A3.29,3.29,0,0,1,27.444-3.75Zm8.574-3.207V-.515H34.962V-6.957Zm5.274,5.126h-2.7L38.132-.515h-1.1l2.308-6.451H40.56L42.868-.515H41.756ZM41-2.693,39.948-5.687,38.892-2.693Zm3.93,1.325H47.1v.853H43.869V-6.957h1.057Zm7.591.918a2.885,2.885,0,0,1-1.168-.227,1.917,1.917,0,0,1-.816-.644,1.636,1.636,0,0,1-.3-.973h1.131a1.021,1.021,0,0,0,.329.686,1.166,1.166,0,0,0,.82.269A1.263,1.263,0,0,0,53.37-1.6a.859.859,0,0,0,.306-.681.744.744,0,0,0-.19-.528,1.271,1.271,0,0,0-.473-.315,7.129,7.129,0,0,0-.783-.241,7.338,7.338,0,0,1-1.024-.338,1.692,1.692,0,0,1-.672-.533,1.54,1.54,0,0,1-.278-.964,1.713,1.713,0,0,1,.278-.973,1.776,1.776,0,0,1,.779-.64,2.829,2.829,0,0,1,1.159-.222A2.414,2.414,0,0,1,54-6.572a1.727,1.727,0,0,1,.663,1.284H53.5a.846.846,0,0,0-.334-.6,1.233,1.233,0,0,0-.806-.25,1.144,1.144,0,0,0-.742.232.807.807,0,0,0-.287.667.677.677,0,0,0,.181.487,1.276,1.276,0,0,0,.459.3,7.123,7.123,0,0,0,.76.241,7.935,7.935,0,0,1,1.043.352,1.736,1.736,0,0,1,.686.542,1.559,1.559,0,0,1,.283.978,1.758,1.758,0,0,1-.264.927,1.906,1.906,0,0,1-.769.7A2.537,2.537,0,0,1,52.517-.45ZM57.049-6.1v1.891h2.225v.862H57.049v1.974h2.5v.862H55.993V-6.966h3.559V-6.1ZM64.2-.515,62.713-3.091h-.806V-.515H60.85V-6.957h2.225a2.766,2.766,0,0,1,1.256.26A1.8,1.8,0,0,1,65.1-6a1.891,1.891,0,0,1,.255.973,1.929,1.929,0,0,1-.366,1.145,1.858,1.858,0,0,1-1.126.7L65.456-.515Zm-2.289-3.42h1.168a1.225,1.225,0,0,0,.894-.3,1.068,1.068,0,0,0,.3-.8,1.03,1.03,0,0,0-.3-.783,1.26,1.26,0,0,0-.9-.283H61.906ZM72.26-6.957,69.84-.515H68.617L66.189-6.957h1.131L69.229-1.6l1.919-5.357Zm1.937,0V-.515H73.14V-6.957ZM75.235-3.75a3.29,3.29,0,0,1,.44-1.7,3.135,3.135,0,0,1,1.2-1.173,3.337,3.337,0,0,1,1.654-.422,3.361,3.361,0,0,1,1.831.505A2.876,2.876,0,0,1,81.519-5.1h-1.27a1.7,1.7,0,0,0-.7-.76,2.063,2.063,0,0,0-1.029-.25,2.248,2.248,0,0,0-1.14.287A2,2,0,0,0,76.6-5a2.651,2.651,0,0,0-.283,1.251A2.651,2.651,0,0,0,76.6-2.5a2.031,2.031,0,0,0,.783.83,2.22,2.22,0,0,0,1.14.292,2.063,2.063,0,0,0,1.029-.25,1.7,1.7,0,0,0,.7-.76h1.27A2.852,2.852,0,0,1,80.356-.96a3.384,3.384,0,0,1-1.831.5,3.329,3.329,0,0,1-1.659-.422,3.144,3.144,0,0,1-1.191-1.173A3.29,3.29,0,0,1,75.235-3.75ZM83.809-6.1v1.891h2.225v.862H83.809v1.974h2.5v.862H82.752V-6.966h3.559V-6.1ZM89.732-.45a2.885,2.885,0,0,1-1.168-.227,1.917,1.917,0,0,1-.816-.644,1.636,1.636,0,0,1-.3-.973h1.131a1.021,1.021,0,0,0,.329.686,1.166,1.166,0,0,0,.82.269,1.263,1.263,0,0,0,.853-.264.859.859,0,0,0,.306-.681.744.744,0,0,0-.19-.528,1.271,1.271,0,0,0-.473-.315,7.128,7.128,0,0,0-.783-.241,7.338,7.338,0,0,1-1.024-.338,1.693,1.693,0,0,1-.672-.533A1.54,1.54,0,0,1,87.47-5.2a1.713,1.713,0,0,1,.278-.973,1.776,1.776,0,0,1,.779-.64,2.829,2.829,0,0,1,1.159-.222,2.414,2.414,0,0,1,1.534.468,1.727,1.727,0,0,1,.663,1.284H90.714a.846.846,0,0,0-.334-.6,1.234,1.234,0,0,0-.806-.25,1.144,1.144,0,0,0-.742.232.807.807,0,0,0-.287.667.677.677,0,0,0,.181.487,1.276,1.276,0,0,0,.459.3,7.123,7.123,0,0,0,.76.241,7.935,7.935,0,0,1,1.043.352,1.736,1.736,0,0,1,.686.542,1.559,1.559,0,0,1,.283.978,1.758,1.758,0,0,1-.264.927,1.906,1.906,0,0,1-.769.7A2.537,2.537,0,0,1,89.732-.45Zm6.942-.918h2.178v.853H95.617V-6.957h1.057Zm4.115-5.589V-.515H99.733V-6.957Zm8.175,0V-.515h-1.057V-4.927L105.943-.515h-.732l-1.974-4.412V-.515H102.18V-6.957h1.14l2.262,5.052,2.252-5.052Zm2.447,0V-.515h-1.057V-6.957Zm5.552,0v.862h-1.715v5.58h-1.057v-5.58h-1.724v-.862Zm2.123.853v1.891h2.225v.862h-2.225v1.974h2.5v.862H118.03V-6.966h3.559V-6.1Zm5.9-.853a3.923,3.923,0,0,1,1.8.394,2.818,2.818,0,0,1,1.2,1.131,3.4,3.4,0,0,1,.422,1.719,3.325,3.325,0,0,1-.422,1.705,2.785,2.785,0,0,1-1.2,1.108,4,4,0,0,1-1.8.385h-2.1V-6.957Zm0,5.58a2.325,2.325,0,0,0,1.733-.612,2.352,2.352,0,0,0,.6-1.724,2.432,2.432,0,0,0-.6-1.752,2.285,2.285,0,0,0-1.733-.63h-1.047v4.718Z" transform="translate(298.98 142.626)" fill="#636363" stroke="rgba(0,0,0,0)" stroke-width="1"/>
  </g>
</svg>
